<svg width="20" height="20" viewBox="0 0 20 20" fill="none" xmlns="http://www.w3.org/2000/svg">
<g clip-path="url(#clip0_7_17)">
<path d="M9.64565 0.485194C9.79623 0.485194 9.93844 0.577216 9.98027 0.727795L10.4571 2.1332C10.4989 2.25869 10.616 2.35071 10.7499 2.36744C10.9758 2.4009 11.1933 2.43436 11.4108 2.48455C11.4359 2.48455 11.4693 2.49292 11.4944 2.49292C11.6032 2.49292 11.7036 2.45109 11.7705 2.36744L12.7074 1.22137C12.7743 1.13771 12.8747 1.08751 12.9835 1.08751C13.0253 1.08751 13.0671 1.08751 13.109 1.11261C13.5189 1.27156 13.9121 1.46397 14.2969 1.6731C14.4307 1.74839 14.4976 1.89897 14.4642 2.04955L14.1714 3.50515C14.1463 3.63899 14.1965 3.77284 14.3052 3.8565C14.4809 3.99034 14.6482 4.14093 14.8155 4.29151C14.8825 4.35843 14.9745 4.3919 15.0581 4.3919C15.1 4.3919 15.1418 4.39189 15.1836 4.36679L16.5723 3.84814C16.5723 3.84814 16.6559 3.82304 16.6978 3.82304C16.7982 3.82304 16.8985 3.86486 16.9655 3.94852C17.2415 4.2915 17.4841 4.65122 17.71 5.02767C17.7853 5.16152 17.7686 5.32047 17.6682 5.43758L16.6894 6.55019C16.5974 6.65058 16.5807 6.79279 16.6308 6.91828C16.7145 7.12741 16.7898 7.33655 16.8567 7.55406C16.8985 7.68791 17.0073 7.77992 17.1411 7.80502L18.5967 8.04762C18.7473 8.07272 18.8644 8.18983 18.8895 8.34041C18.8895 8.37387 18.8979 8.40734 18.9063 8.43243C18.9648 8.83398 18.9899 9.23552 18.9983 9.6287C18.9983 9.77928 18.9063 9.9215 18.7557 9.97169L17.3503 10.4485C17.2248 10.4903 17.1328 10.6074 17.116 10.7413C17.0826 10.9671 17.0491 11.1846 16.9989 11.4021C16.9655 11.536 17.0157 11.6698 17.116 11.7619L18.2621 12.6988C18.3792 12.7908 18.4211 12.9581 18.3709 13.092C18.2119 13.5019 18.0195 13.8951 17.8104 14.2799C17.7518 14.3886 17.6263 14.4556 17.5092 14.4556C17.4841 14.4556 17.459 14.4556 17.4423 14.4556L15.9867 14.1628C15.9867 14.1628 15.9449 14.1628 15.9198 14.1628C15.811 14.1628 15.7023 14.213 15.6354 14.305C15.5015 14.4806 15.3509 14.648 15.2003 14.8153C15.1083 14.9157 15.0749 15.0579 15.1251 15.1833L15.6437 16.572C15.6939 16.7142 15.6521 16.8732 15.535 16.9652C15.192 17.2413 14.8323 17.4839 14.4558 17.7097C14.4056 17.7432 14.3387 17.7599 14.2801 17.7599C14.1965 17.7599 14.1128 17.7265 14.0459 17.6679L12.9333 16.6891C12.8664 16.6306 12.7827 16.6055 12.6991 16.6055C12.6489 16.6055 12.607 16.6139 12.5568 16.6306C12.3477 16.7142 12.1386 16.7895 11.9211 16.8564C11.7872 16.8983 11.6952 17.007 11.6701 17.1409L11.4275 18.5965C11.4024 18.7471 11.2853 18.8642 11.1347 18.8893C11.1012 18.8893 11.0678 18.8976 11.0427 18.906C10.6411 18.9646 10.2396 18.9897 9.84642 18.998C9.69584 18.998 9.55363 18.906 9.5118 18.7554L9.03497 17.35C8.99314 17.2245 8.87602 17.1325 8.74217 17.1158C8.5163 17.0823 8.2988 17.0489 8.0813 16.9987C8.0562 16.9987 8.02274 16.9903 7.99764 16.9903C7.88889 16.9903 7.78851 17.0321 7.72158 17.1158L6.78465 18.2619C6.71772 18.3455 6.61733 18.3957 6.50858 18.3957C6.46676 18.3957 6.42493 18.3957 6.3831 18.3706C5.97319 18.2117 5.58001 18.0193 5.1952 17.8101C5.06135 17.7348 4.99443 17.5842 5.02789 17.4337L5.32068 15.9781C5.34578 15.8442 5.29558 15.7104 5.18683 15.6267C5.01116 15.4929 4.84385 15.3423 4.67654 15.1917C4.60961 15.1248 4.51759 15.0913 4.43394 15.0913C4.39211 15.0913 4.35028 15.0913 4.30845 15.1164L2.91978 15.6351C2.91978 15.6351 2.83612 15.6602 2.7943 15.6602C2.69391 15.6602 2.59352 15.6184 2.5266 15.5347C2.25054 15.1917 2.00794 14.832 1.78207 14.4556C1.70678 14.3217 1.72351 14.1628 1.8239 14.0456L2.80266 12.933C2.89468 12.8326 2.91141 12.6904 2.86122 12.5649C2.77757 12.3558 2.70228 12.1467 2.63535 11.9292C2.59352 11.7953 2.48477 11.7033 2.35092 11.6782L0.895326 11.4356C0.744747 11.4105 0.62763 11.2934 0.602534 11.1428C0.602534 11.1093 0.594168 11.0759 0.585803 11.0508C0.527244 10.6492 0.502148 10.2477 0.493782 9.85457C0.493782 9.70399 0.585803 9.56178 0.736382 9.51158L2.14179 9.03475C2.26727 8.99292 2.35929 8.87581 2.37602 8.74196C2.40948 8.51609 2.44295 8.29858 2.49314 8.08108C2.5266 7.94723 2.47641 7.81338 2.37602 7.72136L1.22995 6.78442C1.11283 6.6924 1.071 6.5251 1.1212 6.39125C1.28014 5.98134 1.47255 5.58816 1.68168 5.20334C1.74024 5.09459 1.86573 5.02767 1.98284 5.02767C2.00794 5.02767 2.03304 5.02767 2.04977 5.02767L3.50537 5.32046C3.50537 5.32046 3.54719 5.32046 3.57229 5.32046C3.68104 5.32046 3.78979 5.27027 3.85672 5.17825C3.99056 5.00257 4.14114 4.83526 4.29172 4.66795C4.38374 4.56757 4.41721 4.42536 4.36701 4.29987L3.84835 2.9112C3.79816 2.76898 3.83999 2.61004 3.9571 2.51802C4.30009 2.24195 4.65981 1.99936 5.03625 1.77349C5.08645 1.74002 5.15337 1.7233 5.21193 1.7233C5.29558 1.7233 5.37924 1.75676 5.44616 1.81532L6.55878 2.79408C6.6257 2.85264 6.70935 2.87773 6.79301 2.87773C6.8432 2.87773 6.88503 2.86937 6.93522 2.85264C7.14436 2.76898 7.3535 2.6937 7.571 2.62677C7.70485 2.58494 7.79687 2.47619 7.82197 2.34234L8.06457 0.886742C8.08966 0.736162 8.20678 0.619047 8.35736 0.59395C8.39082 0.59395 8.42428 0.585581 8.44938 0.577215C8.85093 0.518657 9.25247 0.49356 9.64565 0.485194ZM9.64565 0H9.63728C9.21901 0 8.79237 0.0418234 8.37409 0.100382L8.27371 0.117116C7.91399 0.175675 7.62956 0.451732 7.571 0.811449L7.34513 2.19176C7.16946 2.25032 6.98542 2.30888 6.81811 2.38417L5.76405 1.46397C5.61347 1.33012 5.4127 1.25483 5.21193 1.25483C5.06135 1.25483 4.91914 1.29666 4.79365 1.37195C4.40047 1.60618 4.01566 1.86551 3.65594 2.1583C3.37152 2.38417 3.27113 2.76062 3.39661 3.10361L3.89018 4.41699C3.7647 4.5592 3.63921 4.70141 3.5221 4.84363L2.15015 4.56757C2.09159 4.5592 2.0414 4.55084 1.98284 4.55084C1.68168 4.55084 1.40562 4.70978 1.25504 4.96911C1.02917 5.37066 0.828402 5.78894 0.661092 6.21558C0.527244 6.5502 0.62763 6.93501 0.912058 7.16088L1.99121 8.04762C1.94938 8.23166 1.91592 8.4157 1.89082 8.59975L0.569072 9.05148C0.226086 9.1686 -0.00814847 9.49485 0.00021704 9.86293C0.00021704 10.2812 0.0420446 10.7078 0.100603 11.1261L0.117334 11.2265C0.175893 11.5862 0.451955 11.8706 0.811671 11.9292L2.19198 12.155C2.25054 12.3307 2.3091 12.5148 2.38439 12.6821L1.46418 13.7361C1.22158 14.0122 1.18812 14.4054 1.37216 14.7149C1.60639 15.1081 1.86573 15.4929 2.15852 15.8526C2.31746 16.0534 2.5517 16.1621 2.81103 16.1621C2.91141 16.1621 3.0118 16.1454 3.10382 16.1119L4.41721 15.6184C4.55942 15.7438 4.70163 15.8693 4.84385 15.9781L4.56778 17.35C4.50086 17.7097 4.65981 18.0611 4.97769 18.2451C5.37924 18.471 5.79751 18.6718 6.22416 18.8391C6.31618 18.8725 6.42493 18.8976 6.52531 18.8976C6.77628 18.8976 7.01051 18.7889 7.16946 18.5881L8.0562 17.509C8.22351 17.5508 8.41592 17.5842 8.60833 17.6093L9.06006 18.9311C9.17718 19.2741 9.49507 19.5 9.85479 19.5C10.2814 19.5 10.7081 19.4581 11.1263 19.3996L11.2267 19.3828C11.5864 19.3243 11.8625 19.0482 11.9294 18.6885L12.1553 17.3082C12.331 17.2496 12.515 17.1911 12.6823 17.1158L13.7364 18.036C13.887 18.1698 14.0877 18.2451 14.2885 18.2451C14.4391 18.2451 14.5813 18.2033 14.7068 18.128C15.1 17.8938 15.4848 17.6261 15.8445 17.3417C16.1289 17.1158 16.2293 16.7393 16.1038 16.3963L15.6103 15.083C15.7357 14.9408 15.8612 14.7985 15.9783 14.6563L17.3503 14.9324C17.4088 14.9408 17.459 14.9491 17.5176 14.9491C17.8188 14.9491 18.0948 14.7902 18.2454 14.5308C18.4713 14.1293 18.672 13.711 18.8393 13.2844C18.9732 12.9498 18.8728 12.5649 18.5884 12.3391L17.5092 11.4523C17.5511 11.2683 17.5845 11.0843 17.6096 10.9002L18.9314 10.4485C19.2744 10.3314 19.5086 10.0051 19.5002 9.63707C19.5002 9.21879 19.4584 8.79215 19.3998 8.37387L19.3831 8.27349C19.3245 7.91377 19.0485 7.62934 18.6888 7.57078L17.3085 7.34492C17.2499 7.16924 17.1913 6.9852 17.116 6.81789L18.0363 5.76384C18.2789 5.48778 18.3123 5.09459 18.1283 4.78507C17.894 4.39189 17.6347 4.00708 17.3419 3.64736C17.183 3.44659 16.9487 3.33784 16.6894 3.33784C16.589 3.33784 16.4886 3.35457 16.3966 3.38803L15.0832 3.8816C14.941 3.75612 14.7988 3.63063 14.6566 3.52188L14.9327 2.14994C14.9996 1.79022 14.8406 1.43887 14.5227 1.25483C14.1212 1.02896 13.7029 0.828179 13.2763 0.660869C13.1843 0.627407 13.0755 0.602311 12.9751 0.602311C12.7242 0.602311 12.4899 0.711065 12.331 0.911837L11.4442 1.99099C11.2769 1.94916 11.0845 1.9157 10.8921 1.8906L10.4404 0.568855C10.3233 0.225869 10.0054 0 9.64565 0Z" fill="url(#paint0_linear_7_17)"/>
<path d="M10.6259 13.06C10.0403 13.6456 9.09499 13.6456 8.50941 13.06L4.90387 9.45447C4.66127 9.21187 4.66127 8.8187 4.90387 8.5761L6.14197 7.338C6.38457 7.0954 6.77775 7.0954 7.02035 7.338L9.57183 9.88948L16.7076 2.7537C16.9502 2.5111 17.3434 2.5111 17.586 2.7537L18.8241 3.99179C19.0667 4.23439 19.0667 4.62758 18.8241 4.87018L10.6259 13.0684V13.06Z" fill="black"/>
</g>
<defs>
<linearGradient id="paint0_linear_7_17" x1="19.5004" y1="1.34482" x2="-0.431773" y2="1.83192" gradientUnits="userSpaceOnUse">
<stop stop-color="#CB122D"/>
<stop offset="1" stop-color="#650916"/>
</linearGradient>
<clipPath id="clip0_7_17">
<rect width="20" height="20" fill="white"/>
</clipPath>
</defs>
</svg>
