<svg width="28" height="28" viewBox="0 0 39 39" fill="none" xmlns="http://www.w3.org/2000/svg">
    <path d="M16.6425 10.2383H7.78641C7.51744 10.2379 7.2552 10.3224 7.03692 10.4795C6.81865 10.6367 6.65542 10.8586 6.57043 11.1138L4.73047 16.6382H16.6425V10.2383Z" fill="url(#paint0_linear_4351_1471)"/>
    <path d="M1.92124 15.3594C1.7515 15.3594 1.58872 15.4268 1.4687 15.5468C1.34868 15.6668 1.28125 15.8296 1.28125 15.9994C1.28125 16.1691 1.34868 16.3319 1.4687 16.4519C1.58872 16.5719 1.7515 16.6393 1.92124 16.6393H3.20121V15.9994C3.20121 15.8296 3.13378 15.6668 3.01376 15.5468C2.89374 15.4268 2.73096 15.3594 2.56122 15.3594H1.92124Z" fill="url(#paint1_linear_4351_1471)"/>
    <path d="M1.92124 28.7977H16.6409V26.8778H9.60108C9.43134 26.8778 9.26856 26.8104 9.14854 26.6903C9.02852 26.5703 8.96109 26.4075 8.96109 26.2378C8.96109 26.0681 9.02852 25.9053 9.14854 25.7853C9.26856 25.6652 9.43134 25.5978 9.60108 25.5978H16.6409V23.6779H8.96109C8.62162 23.6779 8.29606 23.543 8.05601 23.303C7.81597 23.0629 7.68112 22.7373 7.68112 22.3979C7.68112 21.7189 7.95083 21.0678 8.43091 20.5877C8.91099 20.1076 9.56213 19.8379 10.2411 19.8379H16.6409V17.918H4.01847L1.59164 19.3733C1.49722 19.4308 1.41911 19.5115 1.36477 19.6077C1.31042 19.7039 1.28167 19.8125 1.28125 19.923V28.1578C1.28125 28.3275 1.34868 28.4903 1.4687 28.6103C1.58872 28.7303 1.7515 28.7977 1.92124 28.7977ZM5.12117 26.8778H3.8412C3.67146 26.8778 3.50868 26.8104 3.38866 26.6903C3.26864 26.5703 3.20121 26.4075 3.20121 26.2378C3.20121 26.0681 3.26864 25.9053 3.38866 25.7853C3.50868 25.6652 3.67146 25.5978 3.8412 25.5978H5.12117C5.29091 25.5978 5.45369 25.6652 5.57371 25.7853C5.69373 25.9053 5.76116 26.0681 5.76116 26.2378C5.76116 26.4075 5.69373 26.5703 5.57371 26.6903C5.45369 26.8104 5.29091 26.8778 5.12117 26.8778ZM2.56122 21.1179C2.56122 20.6087 2.7635 20.1203 3.12357 19.7603C3.48363 19.4002 3.97198 19.1979 4.48118 19.1979C4.99039 19.1979 5.47874 19.4002 5.8388 19.7603C6.19886 20.1203 6.40114 20.6087 6.40114 21.1179V22.3979C6.40114 22.9071 6.19886 23.3954 5.8388 23.7555C5.47874 24.1156 4.99039 24.3178 4.48118 24.3178C3.97198 24.3178 3.48363 24.1156 3.12357 23.7555C2.7635 23.3954 2.56122 22.9071 2.56122 22.3979V21.1179Z" fill="url(#paint2_linear_4351_1471)"/>
    <path d="M4.47983 23.0404C4.64957 23.0404 4.81235 22.973 4.93237 22.853C5.05239 22.7329 5.11982 22.5702 5.11982 22.4004V21.1205C5.11982 20.9507 5.05239 20.7879 4.93237 20.6679C4.81235 20.5479 4.64957 20.4805 4.47983 20.4805C4.3101 20.4805 4.14731 20.5479 4.02729 20.6679C3.90727 20.7879 3.83984 20.9507 3.83984 21.1205V22.4004C3.83984 22.5702 3.90727 22.7329 4.02729 22.853C4.14731 22.973 4.3101 23.0404 4.47983 23.0404Z" fill="url(#paint3_linear_4351_1471)"/>
    <path d="M30.7202 7.0392H29.933C29.8114 7.03936 29.6924 7.00489 29.5897 6.93983C29.487 6.87478 29.405 6.78182 29.3532 6.67185C29.1569 6.36995 28.8835 6.12609 28.5612 5.9656C28.2388 5.80512 27.8794 5.73386 27.5202 5.75923C27.1625 5.73309 26.8044 5.80359 26.4833 5.96336C26.1622 6.12313 25.8899 6.36628 25.695 6.66737C25.6438 6.77838 25.5618 6.87239 25.4588 6.93829C25.3559 7.00418 25.2362 7.0392 25.1139 7.0392H24.3203V8.31917H30.7202V7.0392Z" fill="url(#paint4_linear_4351_1471)"/>
    <path d="M3.19858 31.9981H5.75853C5.92826 31.9981 6.09105 31.9307 6.21107 31.8106C6.33109 31.6906 6.39851 31.5278 6.39851 31.3581V30.0781H2.55859V31.3581C2.55859 31.5278 2.62602 31.6906 2.74604 31.8106C2.86606 31.9307 3.02885 31.9981 3.19858 31.9981Z" fill="url(#paint5_linear_4351_1471)"/>
    <path d="M8.95703 22.3972H16.6369V21.1172H10.237C9.89753 21.1172 9.57197 21.252 9.33193 21.4921C9.09189 21.7321 8.95703 22.0577 8.95703 22.3972Z" fill="url(#paint6_linear_4351_1471)"/>
    <path d="M35.8415 8.32031H32.0016C32.0016 8.65978 31.8667 8.98535 31.6267 9.22539C31.3866 9.46543 31.0611 9.60029 30.7216 9.60029H24.3217C23.9823 9.60029 23.6567 9.46543 23.4167 9.22539C23.1766 8.98535 23.0418 8.65978 23.0418 8.32031H19.2018C18.8624 8.32031 18.5368 8.45517 18.2968 8.69521C18.0567 8.93525 17.9219 9.26082 17.9219 9.60029V31.3598C17.9219 31.6993 18.0567 32.0249 18.2968 32.2649C18.5368 32.505 18.8624 32.6398 19.2018 32.6398H35.8415C36.181 32.6398 36.5065 32.505 36.7466 32.2649C36.9866 32.0249 37.1215 31.6993 37.1215 31.3598V9.60029C37.1215 9.26082 36.9866 8.93525 36.7466 8.69521C36.5065 8.45517 36.181 8.32031 35.8415 8.32031ZM25.4942 25.3152L22.9343 29.1551C22.8821 29.2343 22.8131 29.3009 22.7321 29.3502C22.651 29.3994 22.5601 29.4301 22.4658 29.4399C22.444 29.4399 22.4229 29.4431 22.4018 29.4431C22.2321 29.443 22.0693 29.3756 21.9493 29.2556L20.6693 27.9756C20.5528 27.8549 20.4883 27.6932 20.4897 27.5254C20.4912 27.3576 20.5585 27.1971 20.6771 27.0784C20.7958 26.9598 20.9563 26.8925 21.1241 26.891C21.2919 26.8896 21.4536 26.9541 21.5743 27.0706L22.3026 27.799L24.4293 24.608C24.4759 24.5381 24.5359 24.478 24.6057 24.4312C24.6756 24.3845 24.7539 24.352 24.8364 24.3355C24.9188 24.319 25.0037 24.319 25.0861 24.3353C25.1686 24.3516 25.247 24.3841 25.3169 24.4307C25.3868 24.4773 25.4469 24.5373 25.4937 24.6072C25.5404 24.677 25.5729 24.7554 25.5894 24.8378C25.6059 24.9202 25.6059 25.0051 25.5896 25.0876C25.5733 25.17 25.5408 25.2484 25.4942 25.3184V25.3152ZM25.4942 18.9153L22.9343 22.7552C22.8817 22.8339 22.8124 22.9 22.7313 22.9487C22.6502 22.9974 22.5593 23.0275 22.4651 23.0368C22.4434 23.0368 22.4223 23.04 22.4011 23.04C22.2314 23.04 22.0687 22.9725 21.9487 22.8525L20.6687 21.5725C20.5521 21.4518 20.4876 21.2902 20.4891 21.1224C20.4905 20.9545 20.5578 20.794 20.6765 20.6754C20.7952 20.5567 20.9557 20.4894 21.1235 20.488C21.2913 20.4865 21.4529 20.551 21.5736 20.6676L22.3019 21.3959L24.4286 18.2049C24.4753 18.135 24.5352 18.0749 24.6051 18.0282C24.6749 17.9814 24.7533 17.9489 24.8357 17.9324C24.9182 17.916 25.003 17.9159 25.0855 17.9322C25.1679 17.9486 25.2464 17.981 25.3163 18.0276C25.3862 18.0743 25.4463 18.1342 25.493 18.2041C25.5398 18.2739 25.5723 18.3523 25.5888 18.4347C25.6052 18.5172 25.6053 18.602 25.589 18.6845C25.5726 18.7669 25.5408 18.8454 25.4942 18.9153ZM25.4942 12.5154L22.9343 16.3553C22.8821 16.4346 22.8131 16.5012 22.7321 16.5504C22.651 16.5997 22.5601 16.6303 22.4658 16.6401C22.444 16.6401 22.4229 16.6401 22.4018 16.6401C22.2321 16.6401 22.0693 16.5727 21.9493 16.4526L20.6693 15.1727C20.5528 15.0519 20.4883 14.8903 20.4897 14.7225C20.4912 14.5547 20.5585 14.3942 20.6771 14.2755C20.7958 14.1568 20.9563 14.0895 21.1241 14.0881C21.2919 14.0866 21.4536 14.1511 21.5743 14.2677L22.3026 14.996L24.4293 11.805C24.4759 11.7351 24.5359 11.6751 24.6057 11.6283C24.6756 11.5816 24.7539 11.549 24.8364 11.5326C24.9188 11.5161 25.0037 11.516 25.0861 11.5324C25.1686 11.5487 25.247 11.5811 25.3169 11.6278C25.3868 11.6744 25.4469 11.7344 25.4937 11.8042C25.5404 11.8741 25.5729 11.9525 25.5894 12.0349C25.6059 12.1173 25.6059 12.2022 25.5896 12.2846C25.5733 12.3671 25.5408 12.4455 25.4942 12.5154ZM31.2451 29.4399H27.5217C27.3519 29.4399 27.1892 29.3724 27.0691 29.2524C26.9491 29.1324 26.8817 28.9696 26.8817 28.7999C26.8817 28.6302 26.9491 28.4674 27.0691 28.3474C27.1892 28.2273 27.3519 28.1599 27.5217 28.1599H31.2451C31.4149 28.1599 31.5776 28.2273 31.6977 28.3474C31.8177 28.4674 31.8851 28.6302 31.8851 28.7999C31.8851 28.9696 31.8177 29.1324 31.6977 29.2524C31.5776 29.3724 31.4149 29.4399 31.2451 29.4399ZM33.2816 26.8799H27.5217C27.3519 26.8799 27.1892 26.8125 27.0691 26.6925C26.9491 26.5725 26.8817 26.4097 26.8817 26.2399C26.8817 26.0702 26.9491 25.9074 27.0691 25.7874C27.1892 25.6674 27.3519 25.6 27.5217 25.6H33.2816C33.4513 25.6 33.6141 25.6674 33.7341 25.7874C33.8541 25.9074 33.9215 26.0702 33.9215 26.2399C33.9215 26.4097 33.8541 26.5725 33.7341 26.6925C33.6141 26.8125 33.4513 26.8799 33.2816 26.8799ZM26.8817 22.4C26.8817 22.2303 26.9491 22.0675 27.0691 21.9475C27.1892 21.8275 27.3519 21.76 27.5217 21.76H31.2451C31.4149 21.76 31.5776 21.8275 31.6977 21.9475C31.8177 22.0675 31.8851 22.2303 31.8851 22.4C31.8851 22.5698 31.8177 22.7325 31.6977 22.8526C31.5776 22.9726 31.4149 23.04 31.2451 23.04H27.5217C27.3519 23.04 27.1892 22.9726 27.0691 22.8526C26.9491 22.7325 26.8817 22.5698 26.8817 22.4ZM33.2816 20.4801H27.5217C27.3519 20.4801 27.1892 20.4126 27.0691 20.2926C26.9491 20.1726 26.8817 20.0098 26.8817 19.8401C26.8817 19.6703 26.9491 19.5076 27.0691 19.3875C27.1892 19.2675 27.3519 19.2001 27.5217 19.2001H33.2816C33.4513 19.2001 33.6141 19.2675 33.7341 19.3875C33.8541 19.5076 33.9215 19.6703 33.9215 19.8401C33.9215 20.0098 33.8541 20.1726 33.7341 20.2926C33.6141 20.4126 33.4513 20.4801 33.2816 20.4801ZM26.8817 16.0002C26.8817 15.8304 26.9491 15.6676 27.0691 15.5476C27.1892 15.4276 27.3519 15.3602 27.5217 15.3602H31.2451C31.4149 15.3602 31.5776 15.4276 31.6977 15.5476C31.8177 15.6676 31.8851 15.8304 31.8851 16.0002C31.8851 16.1699 31.8177 16.3327 31.6977 16.4527C31.5776 16.5727 31.4149 16.6401 31.2451 16.6401H27.5217C27.3519 16.6401 27.1892 16.5727 27.0691 16.4527C26.9491 16.3327 26.8817 16.1699 26.8817 16.0002ZM33.2816 14.0802H27.5217C27.3519 14.0802 27.1892 14.0128 27.0691 13.8927C26.9491 13.7727 26.8817 13.6099 26.8817 13.4402C26.8817 13.2705 26.9491 13.1077 27.0691 12.9877C27.1892 12.8676 27.3519 12.8002 27.5217 12.8002H33.2816C33.4513 12.8002 33.6141 12.8676 33.7341 12.9877C33.8541 13.1077 33.9215 13.2705 33.9215 13.4402C33.9215 13.6099 33.8541 13.7727 33.7341 13.8927C33.6141 14.0128 33.4513 14.0802 33.2816 14.0802Z" fill="url(#paint7_linear_4351_1471)"/>
    <defs>
        <linearGradient id="paint0_linear_4351_1471" x1="16.6425" y1="10.6796" x2="4.4846" y2="11.2327" gradientUnits="userSpaceOnUse">
            <stop stop-color="#CB122D"/>
            <stop offset="1" stop-color="#650916"/>
        </linearGradient>
        <linearGradient id="paint1_linear_4351_1471" x1="3.20121" y1="15.4476" x2="1.2402" y2="15.5195" gradientUnits="userSpaceOnUse">
            <stop stop-color="#CB122D"/>
            <stop offset="1" stop-color="#650916"/>
        </linearGradient>
        <linearGradient id="paint2_linear_4351_1471" x1="16.6409" y1="18.6683" x2="0.95046" y2="19.2096" gradientUnits="userSpaceOnUse">
            <stop stop-color="#CB122D"/>
            <stop offset="1" stop-color="#650916"/>
        </linearGradient>
        <linearGradient id="paint3_linear_4351_1471" x1="5.11982" y1="20.657" x2="3.81092" y2="20.673" gradientUnits="userSpaceOnUse">
            <stop stop-color="#CB122D"/>
            <stop offset="1" stop-color="#650916"/>
        </linearGradient>
        <linearGradient id="paint4_linear_4351_1471" x1="30.7202" y1="5.93082" x2="24.1989" y2="6.3284" gradientUnits="userSpaceOnUse">
            <stop stop-color="#CB122D"/>
            <stop offset="1" stop-color="#650916"/>
        </linearGradient>
        <linearGradient id="paint5_linear_4351_1471" x1="6.39851" y1="30.2105" x2="2.48059" y2="30.402" gradientUnits="userSpaceOnUse">
            <stop stop-color="#CB122D"/>
            <stop offset="1" stop-color="#650916"/>
        </linearGradient>
        <linearGradient id="paint6_linear_4351_1471" x1="16.6369" y1="21.2055" x2="8.94761" y2="22.3329" gradientUnits="userSpaceOnUse">
            <stop stop-color="#CB122D"/>
            <stop offset="1" stop-color="#650916"/>
        </linearGradient>
        <linearGradient id="paint7_linear_4351_1471" x1="37.1215" y1="9.9975" x2="17.4923" y2="10.3762" gradientUnits="userSpaceOnUse">
            <stop stop-color="#CB122D"/>
            <stop offset="1" stop-color="#650916"/>
        </linearGradient>
    </defs>
</svg>
