<svg width="14" height="14" viewBox="0 0 14 14" fill="none" xmlns="http://www.w3.org/2000/svg">
<path d="M11.7937 5.56953C11.5429 5.27203 11.1812 5.10286 10.7904 5.10286H8.43953V3.4987C8.43953 2.61203 7.72203 1.89453 6.7887 1.89453C6.38036 1.89453 6.01286 2.13953 5.84953 2.5187L4.36786 5.97786H3.27703C2.51286 5.97786 1.89453 6.5962 1.89453 7.36036V10.7262C1.89453 11.4845 2.5187 12.1029 3.27703 12.1029H10.0204C10.6562 12.1029 11.1987 11.6479 11.3095 11.0179L12.0795 6.64286C12.1437 6.25786 12.0387 5.86703 11.7879 5.56953H11.7937ZM3.27703 11.2279C2.99703 11.2279 2.76953 11.0004 2.76953 10.7262V7.36036C2.76953 7.08036 2.99703 6.85286 3.27703 6.85286H4.2162V11.2279H3.27703ZM10.452 10.8662C10.417 11.0762 10.2362 11.2279 10.0204 11.2279H5.09703V6.50286L6.65453 2.85703C6.67786 2.80453 6.73036 2.7637 6.8412 2.7637C7.2437 2.7637 7.56453 3.09036 7.56453 3.49286V5.97203H10.7904C10.9245 5.97203 11.0412 6.02453 11.1229 6.1237C11.2045 6.22286 11.2395 6.3512 11.2162 6.48536L10.4462 10.8604L10.452 10.8662Z" fill="#DF7300"/>
</svg>
